HIERARCHY
ROOT Hips
{
	OFFSET 0.000000 71.427986 0.000000
	CHANNELS 6 Xposition Yposition Zposition Xrotation Yrotation Zrotation
	JOINT Pelvis
	{
		OFFSET 0.000000 0.000000 0.000000
		CHANNELS 3 Xrotation Yrotation Zrotation
		JOINT LeftUpLeg
		{
			OFFSET 6.797100 -2.508499 -1.318700
			CHANNELS 3 Xrotation Yrotation Zrotation
			JOINT LeftLeg
			{
				OFFSET 0.069008 -29.241863 0.690200
				CHANNELS 3 Xrotation Yrotation Zrotation
				JOINT LeftFoot
				{
					OFFSET -0.069008 -29.568123 -0.266800
					CHANNELS 3 Xrotation Yrotation Zrotation
					JOINT LeftToeBase
					{
						OFFSET 3.145500 -8.631000 16.059900
						CHANNELS 3 Xrotation Yrotation Zrotation
						End Site
						{
							OFFSET 0.000000 18.501587 0.000000
						}
					}
				}
			}
			JOINT Left_ShortSleeve
			{
				OFFSET 0.265923 -10.480953 1.153800
				CHANNELS 3 Xrotation Yrotation Zrotation
				End Site
				{
					OFFSET 1.725763 19.823879 0.000000
				}
			}
		}
		JOINT RightUpLeg
		{
			OFFSET -6.797100 -2.508499 -1.318700
			CHANNELS 3 Xrotation Yrotation Zrotation
			JOINT RightLeg
			{
				OFFSET -0.082453 -29.241932 0.688000
				CHANNELS 3 Xrotation Yrotation Zrotation
				JOINT RightFoot
				{
					OFFSET 0.082453 -29.568058 -0.264600
					CHANNELS 3 Xrotation Yrotation Zrotation
					JOINT RightToeBase
					{
						OFFSET -3.115300 -8.682800 16.113400
						CHANNELS 3 Xrotation Yrotation Zrotation
						End Site
						{
							OFFSET 0.000000 18.567114 0.000000
						}
					}
				}
			}
			JOINT Right_ShortSleeve
			{
				OFFSET -0.265923 -10.480953 1.153800
				CHANNELS 3 Xrotation Yrotation Zrotation
				End Site
				{
					OFFSET -1.725766 19.823910 0.000000
				}
			}
		}
	}
	JOINT Spine
	{
		OFFSET 0.000000 13.368103 0.470500
		CHANNELS 3 Xrotation Yrotation Zrotation
		JOINT Spine1
		{
			OFFSET 0.147000 13.837402 0.538800
			CHANNELS 3 Xrotation Yrotation Zrotation
			JOINT Spine2
			{
				OFFSET 0.168000 16.242897 -1.435500
				CHANNELS 3 Xrotation Yrotation Zrotation
				JOINT Neck
				{
					OFFSET 0.217200 18.631500 -1.679100
					CHANNELS 3 Xrotation Yrotation Zrotation
					JOINT Head
					{
						OFFSET 0.000000 6.599396 1.385900
						CHANNELS 3 Xrotation Yrotation Zrotation
						JOINT Hat
						{
							OFFSET -0.532200 27.220596 -10.096100
							CHANNELS 3 Xrotation Yrotation Zrotation
							End Site
							{
								OFFSET 0.000000 22.029861 0.000000
							}
						}
						JOINT HairD
						{
							OFFSET -10.777400 17.437393 -1.325900
							CHANNELS 3 Xrotation Yrotation Zrotation
							JOINT HairD1
							{
								OFFSET -3.290299 -11.051193 1.062200
								CHANNELS 3 Xrotation Yrotation Zrotation
								End Site
								{
									OFFSET 0.000000 11.579437 0.000000
								}
							}
						}
						JOINT HairB
						{
							OFFSET -10.777400 17.437393 1.467900
							CHANNELS 3 Xrotation Yrotation Zrotation
							JOINT HairB1
							{
								OFFSET -1.561200 -12.956299 3.590200
								CHANNELS 3 Xrotation Yrotation Zrotation
								End Site
								{
									OFFSET 0.000000 13.534866 0.000000
								}
							}
						}
						JOINT HairA
						{
							OFFSET 9.713100 17.437393 1.467900
							CHANNELS 3 Xrotation Yrotation Zrotation
							JOINT HairA1
							{
								OFFSET 1.561200 -12.956299 3.590200
								CHANNELS 3 Xrotation Yrotation Zrotation
								End Site
								{
									OFFSET 0.000000 13.534866 0.000000
								}
							}
						}
						JOINT HairC
						{
							OFFSET 9.713100 17.437393 -1.325900
							CHANNELS 3 Xrotation Yrotation Zrotation
							JOINT HairC1
							{
								OFFSET 3.290300 -11.051193 1.062200
								CHANNELS 3 Xrotation Yrotation Zrotation
								End Site
								{
									OFFSET 0.000000 11.579437 0.000000
								}
							}
						}
					}
				}
				JOINT LeftShoulder
				{
					OFFSET 5.101800 15.108002 -2.763700
					CHANNELS 3 Xrotation Yrotation Zrotation
					JOINT LeftArm
					{
						OFFSET 9.825497 2.506317 -1.597400
						CHANNELS 3 Xrotation Yrotation Zrotation
						JOINT LeftForeArm
						{
							OFFSET 21.966244 0.000000 0.000000
							CHANNELS 3 Xrotation Yrotation Zrotation
							JOINT LeftHand
							{
								OFFSET 33.879036 0.000000 0.000000
								CHANNELS 3 Xrotation Yrotation Zrotation
								JOINT LeftHandThumb1
								{
									OFFSET 6.715286 -2.359680 3.363841
									CHANNELS 3 Xrotation Yrotation Zrotation
									JOINT LeftHandThumb2
									{
										OFFSET 2.507072 -1.447464 1.447461
										CHANNELS 3 Xrotation Yrotation Zrotation
										JOINT LeftHandThumb3
										{
											OFFSET 2.898338 -1.673355 1.673357
											CHANNELS 3 Xrotation Yrotation Zrotation
											End Site
											{
												OFFSET -0.295959 3.727692 -0.131651
											}
										}
									}
								}
								JOINT LeftHandIndex1
								{
									OFFSET 14.190811 -0.254547 3.840278
									CHANNELS 3 Xrotation Yrotation Zrotation
									JOINT LeftHandIndex2
									{
										OFFSET 3.551727 0.000000 -0.000000
										CHANNELS 3 Xrotation Yrotation Zrotation
										JOINT LeftHandIndex3
										{
											OFFSET 2.894196 0.000000 0.000000
											CHANNELS 3 Xrotation Yrotation Zrotation
											End Site
											{
												OFFSET -1.000603 2.690872 0.366626
											}
										}
									}
								}
								JOINT LeftHandMiddle1
								{
									OFFSET 13.776489 0.000000 0.000000
									CHANNELS 3 Xrotation Yrotation Zrotation
									JOINT LeftHandMiddle2
									{
										OFFSET 3.438232 0.000000 0.000000
										CHANNELS 3 Xrotation Yrotation Zrotation
										JOINT LeftHandMiddle3
										{
											OFFSET 3.691551 0.000000 0.000000
											CHANNELS 3 Xrotation Yrotation Zrotation
											End Site
											{
												OFFSET -1.082298 3.499527 0.457670
											}
										}
									}
								}
								JOINT LeftHandRing1
								{
									OFFSET 13.966164 -0.268127 -3.067488
									CHANNELS 3 Xrotation Yrotation Zrotation
									JOINT LeftHandRing2
									{
										OFFSET 3.162567 0.000000 0.000000
										CHANNELS 3 Xrotation Yrotation Zrotation
										JOINT LeftHandRing3
										{
											OFFSET 3.324348 0.000000 0.000000
											CHANNELS 3 Xrotation Yrotation Zrotation
											End Site
											{
												OFFSET -0.861900 3.184998 0.405154
											}
										}
									}
								}
								JOINT LeftHandPinky1
								{
									OFFSET 13.131393 -0.168503 -5.746925
									CHANNELS 3 Xrotation Yrotation Zrotation
									JOINT LeftHandPinky2
									{
										OFFSET 2.849182 0.000000 0.000000
										CHANNELS 3 Xrotation Yrotation Zrotation
										JOINT LeftHandPinky3
										{
											OFFSET 2.805038 0.000000 0.000000
											CHANNELS 3 Xrotation Yrotation Zrotation
											End Site
											{
												OFFSET -0.882500 2.642609 0.325652
											}
										}
									}
								}
							}
							JOINT Left_Sleeve
							{
								OFFSET 6.592125 -0.646545 0.805568
								CHANNELS 3 Xrotation Yrotation Zrotation
								End Site
								{
									OFFSET -0.000179 20.275787 -0.000000
								}
							}
						}
					}
				}
				JOINT RightShoulder
				{
					OFFSET -5.731700 15.108002 -2.763700
					CHANNELS 3 Xrotation Yrotation Zrotation
					JOINT RightArm
					{
						OFFSET -9.825497 2.506317 -1.597400
						CHANNELS 3 Xrotation Yrotation Zrotation
						JOINT RightForeArm
						{
							OFFSET -21.966242 0.000000 0.000000
							CHANNELS 3 Xrotation Yrotation Zrotation
							JOINT RightHand
							{
								OFFSET -33.879032 0.000000 0.000000
								CHANNELS 3 Xrotation Yrotation Zrotation
								JOINT RightHandThumb1
								{
									OFFSET -6.715286 -2.359680 3.363841
									CHANNELS 3 Xrotation Yrotation Zrotation
									JOINT RightHandThumb2
									{
										OFFSET -2.507072 -1.447464 1.447461
										CHANNELS 3 Xrotation Yrotation Zrotation
										JOINT RightHandThumb3
										{
											OFFSET -2.898338 -1.673355 1.673357
											CHANNELS 3 Xrotation Yrotation Zrotation
											End Site
											{
												OFFSET 0.295959 3.727692 -0.131651
											}
										}
									}
								}
								JOINT RightHandIndex1
								{
									OFFSET -14.190811 -0.254547 3.840278
									CHANNELS 3 Xrotation Yrotation Zrotation
									JOINT RightHandIndex2
									{
										OFFSET -3.551727 0.000000 -0.000000
										CHANNELS 3 Xrotation Yrotation Zrotation
										JOINT RightHandIndex3
										{
											OFFSET -2.894196 0.000000 0.000000
											CHANNELS 3 Xrotation Yrotation Zrotation
											End Site
											{
												OFFSET 1.000603 2.690872 0.366626
											}
										}
									}
								}
								JOINT RightHandMiddle1
								{
									OFFSET -13.776489 0.000000 0.000000
									CHANNELS 3 Xrotation Yrotation Zrotation
									JOINT RightHandMiddle2
									{
										OFFSET -3.438232 0.000000 0.000000
										CHANNELS 3 Xrotation Yrotation Zrotation
										JOINT RightHandMiddle3
										{
											OFFSET -3.691551 0.000000 0.000000
											CHANNELS 3 Xrotation Yrotation Zrotation
											End Site
											{
												OFFSET 1.082298 3.499527 0.457670
											}
										}
									}
								}
								JOINT RightHandRing1
								{
									OFFSET -13.966164 -0.268127 -3.067488
									CHANNELS 3 Xrotation Yrotation Zrotation
									JOINT RightHandRing2
									{
										OFFSET -3.162567 0.000000 0.000000
										CHANNELS 3 Xrotation Yrotation Zrotation
										JOINT RightHandRing3
										{
											OFFSET -3.324348 0.000000 0.000000
											CHANNELS 3 Xrotation Yrotation Zrotation
											End Site
											{
												OFFSET 0.861900 3.184998 0.405154
											}
										}
									}
								}
								JOINT RightHandPinky1
								{
									OFFSET -13.131393 -0.168503 -5.746925
									CHANNELS 3 Xrotation Yrotation Zrotation
									JOINT RightHandPinky2
									{
										OFFSET -2.849182 0.000000 0.000000
										CHANNELS 3 Xrotation Yrotation Zrotation
										JOINT RightHandPinky3
										{
											OFFSET -2.805038 0.000000 0.000000
											CHANNELS 3 Xrotation Yrotation Zrotation
											End Site
											{
												OFFSET 0.882500 2.642609 0.325652
											}
										}
									}
								}
							}
							JOINT Right_Sleeve
							{
								OFFSET -6.592125 -0.646545 0.805568
								CHANNELS 3 Xrotation Yrotation Zrotation
								End Site
								{
									OFFSET 0.000179 20.275787 -0.000000
								}
							}
						}
					}
				}
				JOINT Bind_Right_JacketString
				{
					OFFSET -3.534800 11.969597 7.200700
					CHANNELS 3 Xrotation Yrotation Zrotation
					JOINT Bind_Right_JacketString1
					{
						OFFSET -0.319900 -6.102600 2.794100
						CHANNELS 3 Xrotation Yrotation Zrotation
						End Site
						{
							OFFSET 0.000000 6.719452 0.000000
						}
					}
				}
				JOINT Bind_Left_JacketString
				{
					OFFSET 2.904800 11.969597 7.200700
					CHANNELS 3 Xrotation Yrotation Zrotation
					JOINT Bind_Left_JacketString1
					{
						OFFSET 0.364800 -5.904503 3.186800
						CHANNELS 3 Xrotation Yrotation Zrotation
						End Site
						{
							OFFSET 0.000000 6.719513 0.000000
						}
					}
				}
				JOINT HairE
				{
					OFFSET 5.915200 17.612701 -11.592200
					CHANNELS 3 Xrotation Yrotation Zrotation
					JOINT HairE1
					{
						OFFSET 0.289200 -7.171898 -1.284500
						CHANNELS 3 Xrotation Yrotation Zrotation
						End Site
						{
							OFFSET 0.000000 7.291756 0.000000
						}
					}
				}
				JOINT HairF
				{
					OFFSET -0.864800 17.612701 -11.592200
					CHANNELS 3 Xrotation Yrotation Zrotation
					JOINT HairF1
					{
						OFFSET 0.000000 -14.087097 -2.127501
						CHANNELS 3 Xrotation Yrotation Zrotation
						End Site
						{
							OFFSET 0.000000 14.246841 0.000000
						}
					}
				}
				JOINT HairG
				{
					OFFSET -8.087700 17.612701 -11.592200
					CHANNELS 3 Xrotation Yrotation Zrotation
					JOINT HairG1
					{
						OFFSET -0.293600 -6.081398 -0.910100
						CHANNELS 3 Xrotation Yrotation Zrotation
						End Site
						{
							OFFSET 0.000000 6.156120 0.000000
						}
					}
				}
			}
		}
	}
	JOINT Pouch
	{
		OFFSET 0.000000 4.394501 10.847300
		CHANNELS 3 Xrotation Yrotation Zrotation
		End Site
		{
			OFFSET 0.000000 21.880577 0.000000
		}
	}
	JOINT Bag
	{
		OFFSET -13.229000 4.813004 -0.593300
		CHANNELS 3 Xrotation Yrotation Zrotation
		End Site
		{
			OFFSET 0.000000 21.880577 0.000000
		}
	}
	JOINT OccupyGuyFacialAnim_Joint
	{
		OFFSET 1.000000 -70.206398 -1.655000
		CHANNELS 3 Xrotation Yrotation Zrotation
		End Site
		{
			OFFSET 0.000000 21.880577 0.000000
		}
	}
}
MOTION
Frames: 4
Frame Time: 0.033333
-1.163687 71.946030 -42.511719 -61.597754 31.756705 16.191667 -0.000000 0.000000 -0.000000 -84.114353 37.196012 7.729218 93.739319 -2.203522 -2.502070 10.501957 -5.466292 14.096175 -0.000001 -0.000001 0.000002 -0.000003 0.000000 -0.000000 -63.459882 21.928517 -14.940428 79.415948 2.371546 2.406665 -11.653582 -29.277421 18.537909 0.000002 -0.000000 0.000001 -0.000003 -0.000001 -0.000000 5.351638 1.890295 -0.890697 10.749772 3.575023 -2.173479 10.749781 3.575020 -2.173482 8.295476 -0.017127 -7.259344 32.484957 -2.184342 -3.954884 -0.000000 0.000000 -0.000000 -0.000000 0.000000 -0.000000 -0.000000 0.000000 0.000001 -0.000000 0.000000 -0.000000 -0.000002 0.000003 -0.000002 -0.000000 0.000000 -0.000000 -0.000002 0.000003 -0.000002 -0.000000 0.000000 -0.000000 -0.000000 0.000000 -0.000000 15.434773 6.610905 14.393367 4.004187 5.704577 -34.835266 1.312042 -24.680527 0.547873 -25.679592 12.488515 31.554740 -14.941355 2.121273 11.096370 5.281891 -3.264465 6.921232 -0.000001 -0.000000 -0.000001 -6.591527 -3.111072 -5.003557 0.491979 0.619506 -4.961946 0.000001 0.000000 -0.000004 -0.771060 7.304033 -0.603232 0.039946 -0.337618 -11.101308 0.000002 0.000000 0.000001 -0.077577 16.893757 1.716467 -0.393804 -0.660743 -19.590069 -0.000002 0.000002 -0.000002 5.475384 28.002632 1.576298 -0.401115 -1.620003 -9.930180 -0.000001 -0.000002 0.000003 -0.000002 0.000001 -0.000003 49.206708 -7.032037 17.993657 -1.119565 46.649792 68.558673 -2.611512 36.949165 1.570603 8.969462 -2.112166 -64.672179 -11.646091 -1.121790 -11.861441 5.929333 0.659295 -8.093387 0.000001 0.000000 -0.000002 -5.149618 1.477660 8.304524 0.040548 -0.151598 0.016765 -0.000002 0.000000 0.000000 0.034373 -6.991759 1.372109 -0.049005 0.164563 5.936899 0.000000 -0.000000 -0.000001 -1.487748 -16.321656 -2.915015 -0.094248 -0.057007 16.349386 0.000001 0.000002 -0.000001 1.821088 -27.448568 -3.547332 -0.040009 1.084120 10.701370 -0.000000 0.000003 0.000001 -0.000001 -0.000001 -0.000001 -0.000003 -0.000004 0.000002 -0.000003 -0.000001 -0.000002 -0.000003 -0.000004 0.000002 -0.000003 -0.000004 0.000002 -0.000003 -0.000004 0.000002 -0.000003 -0.000001 -0.000002 -0.000003 -0.000004 0.000002 -0.000003 -0.000004 0.000002 -0.000003 -0.000004 0.000002 -0.000003 -0.000001 -0.000002 -0.000000 0.000000 -0.000000 -0.000000 0.000000 -0.000000 -0.000000 0.000000 -0.000000 
-1.073736 71.912239 -42.244530 -62.508471 32.790598 16.177807 0.000001 0.000001 0.000002 -83.687965 37.207384 8.012395 94.045783 -2.240423 -2.503923 9.400459 -3.265723 14.113450 -0.000001 0.000000 -0.000001 0.000001 -0.000000 -0.000001 -62.915065 21.931840 -15.168616 78.692549 2.390659 2.401902 -3.798538 -26.455437 21.891108 -0.000001 0.000000 0.000000 0.000001 0.000002 0.000001 5.060262 1.933715 -1.563171 10.184151 3.697024 -3.393589 10.184163 3.697023 -3.393588 10.382981 3.341031 -2.482601 31.636818 3.245943 1.813920 -0.000000 0.000001 -0.000002 -0.000000 0.000001 -0.000002 -0.000000 0.000001 -0.000002 -0.000000 0.000001 -0.000000 -0.000000 0.000001 -0.000000 -0.000000 0.000001 -0.000000 -0.000000 0.000001 -0.000000 -0.000000 0.000001 -0.000002 -0.000000 0.000001 -0.000002 15.608142 6.227851 14.512854 -3.309206 15.168402 -28.118658 2.930177 -32.125306 1.559056 -14.450252 21.285518 31.057761 -17.526573 0.268259 9.834047 6.206759 -3.611323 5.272907 0.000002 0.000001 -0.000000 -6.603108 -4.139858 -7.372684 0.482055 0.465545 -2.931136 0.000002 0.000002 0.000000 -0.783204 7.098159 -2.767058 0.057344 -0.240804 -9.263434 -0.000001 0.000002 0.000003 -0.246478 17.322222 -0.351099 -0.336880 -0.492749 -17.817865 0.000000 -0.000002 -0.000005 5.051819 28.888808 -0.301136 -0.291234 -0.818854 -5.531546 0.000001 -0.000001 0.000003 -0.000000 0.000001 -0.000001 49.136968 -6.303974 19.969602 1.997453 47.264400 66.619418 -2.641047 37.938771 1.624594 7.899504 -1.670577 -62.703684 -11.646085 -1.121759 -11.861435 5.929327 0.659278 -8.093385 0.000001 -0.000001 0.000001 -5.149615 1.477668 8.304526 0.040551 -0.151594 0.016764 -0.000002 0.000000 -0.000001 0.034373 -6.991753 1.372112 -0.049012 0.164569 5.936903 -0.000000 -0.000000 -0.000001 -1.487743 -16.321630 -2.915011 -0.094255 -0.057017 16.349393 -0.000001 -0.000001 -0.000001 1.821087 -27.448565 -3.547329 -0.040008 1.084127 10.701365 -0.000000 -0.000000 0.000002 0.000001 -0.000001 0.000003 -0.000001 -0.000001 -0.000001 -0.000000 0.000002 -0.000001 -0.000001 -0.000001 -0.000002 -0.000001 -0.000001 -0.000002 -0.000001 -0.000001 -0.000001 -0.000000 0.000002 -0.000000 -0.000001 -0.000001 -0.000002 -0.000001 -0.000001 -0.000002 -0.000001 -0.000001 -0.000001 -0.000000 0.000002 -0.000000 0.000001 0.000001 0.000002 0.000001 0.000001 0.000002 0.000001 0.000001 0.000002 
-0.914042 71.840347 -41.969868 -63.253692 34.050354 14.947698 -0.000001 0.000000 0.000001 -84.367747 35.383915 8.504102 94.878308 -2.376851 -2.510197 9.548190 -2.339380 12.229264 0.000004 -0.000001 0.000001 -0.000000 0.000001 -0.000000 -62.691274 20.659232 -15.131212 78.128000 2.407038 2.398502 2.647209 -22.812666 24.971537 0.000002 -0.000000 0.000001 0.000002 0.000000 0.000000 4.736444 2.076791 -2.335115 9.563216 4.001521 -4.835117 9.563201 4.001544 -4.835120 10.572988 7.436698 6.031963 28.612496 9.565607 8.632697 0.000001 -0.000003 -0.000000 0.000001 -0.000003 -0.000000 0.000001 -0.000003 0.000001 0.000001 -0.000003 -0.000002 0.000001 0.000001 0.000000 0.000001 -0.000003 -0.000002 0.000001 0.000001 0.000000 0.000001 -0.000003 -0.000000 0.000001 -0.000003 -0.000000 14.880407 7.798970 14.541756 -14.280246 20.662996 -18.367630 4.005145 -37.638123 2.448221 7.260320 24.890960 26.209572 -20.096619 -1.515055 8.423968 7.275593 -3.694959 3.749535 -0.000001 -0.000003 0.000000 -6.701789 -5.120310 -9.690235 0.478070 0.319479 -1.008823 0.000003 -0.000001 -0.000002 -0.804428 6.921480 -4.914588 0.071297 -0.146690 -7.485222 0.000002 0.000001 -0.000001 -0.374172 17.761724 -2.432876 -0.286504 -0.327294 -16.090392 -0.000000 -0.000001 -0.000003 4.716365 29.754575 -2.237520 -0.244600 -0.010158 -1.127728 0.000000 -0.000001 0.000003 0.000000 -0.000003 -0.000001 49.380772 -5.990610 20.896691 1.270439 49.191080 68.207335 -2.592172 35.187909 1.494556 6.885571 1.748501 -59.790329 -11.646092 -1.121782 -11.861435 5.929332 0.659267 -8.093393 -0.000001 -0.000001 -0.000000 -5.149616 1.477644 8.304532 0.040552 -0.151607 0.016763 -0.000002 0.000001 -0.000001 0.034372 -6.991764 1.372114 -0.049011 0.164563 5.936903 0.000000 0.000000 -0.000001 -1.487748 -16.321637 -2.915014 -0.094251 -0.056998 16.349396 -0.000000 -0.000001 -0.000004 1.821093 -27.448556 -3.547321 -0.040006 1.084138 10.701371 0.000001 0.000004 0.000001 0.000001 -0.000000 -0.000002 -0.000000 -0.000003 0.000002 0.000001 -0.000001 -0.000002 -0.000000 -0.000003 0.000002 -0.000000 -0.000003 0.000002 -0.000000 -0.000003 0.000002 0.000001 -0.000001 -0.000002 -0.000000 -0.000003 0.000002 -0.000000 -0.000003 0.000002 -0.000000 -0.000003 0.000002 0.000001 -0.000001 -0.000002 -0.000001 0.000000 0.000001 -0.000001 0.000000 0.000001 -0.000001 0.000000 0.000001 
-0.674799 71.785324 -41.908600 -64.129718 35.753506 13.242425 0.000000 -0.000001 0.000001 -84.321185 32.908155 8.086724 95.062279 -2.468511 -2.511361 9.896373 -2.561144 10.567040 0.000002 0.000003 -0.000001 -0.000002 0.000001 0.000000 -61.765032 18.776866 -15.363047 77.012309 2.383091 2.388999 8.367625 -19.234557 28.220286 -0.000000 -0.000000 -0.000001 -0.000004 0.000001 -0.000000 4.487682 2.409692 -3.077264 9.105355 4.702039 -6.215911 9.105364 4.702036 -6.215911 8.804600 11.340733 15.129390 23.341999 15.080013 16.130342 -0.000000 -0.000000 0.000001 -0.000000 -0.000000 0.000001 -0.000000 -0.000000 0.000001 -0.000000 -0.000000 0.000001 -0.000000 0.000001 -0.000000 -0.000000 -0.000000 0.000001 -0.000000 0.000001 -0.000000 -0.000000 -0.000000 0.000001 -0.000000 -0.000000 0.000001 13.636072 9.724729 14.563058 -26.558012 20.168206 -7.966647 4.163899 -40.228185 2.691834 28.489134 20.035122 23.445876 -22.368868 -3.046345 7.065215 8.259913 -3.725180 2.472093 -0.000001 0.000001 0.000001 -6.841134 -5.886257 -11.662741 0.478512 0.166217 -0.013809 -0.000000 0.000004 0.000000 -0.824961 6.817597 -6.807456 0.080646 -0.068784 -6.019656 0.000000 -0.000003 -0.000001 -0.449169 18.149448 -4.328082 -0.248053 -0.186847 -14.637338 -0.000002 0.000004 0.000001 4.502331 30.430514 -4.092771 -0.252514 0.528801 -0.035165 -0.000000 0.000000 -0.000001 0.000001 0.000000 0.000003 49.657681 -5.606656 22.041454 -2.549206 51.587391 72.148975 -2.379828 29.210400 1.161996 4.913594 7.364570 -56.669837 -11.646089 -1.121806 -11.861446 5.929327 0.659288 -8.093377 0.000001 -0.000001 -0.000000 -5.149611 1.477633 8.304522 0.040545 -0.151617 0.016760 -0.000000 0.000000 0.000000 0.034376 -6.991753 1.372113 -0.049016 0.164546 5.936899 0.000000 -0.000001 0.000003 -1.487747 -16.321651 -2.915017 -0.094251 -0.057000 16.349393 0.000000 0.000001 -0.000003 1.821084 -27.448591 -3.547333 -0.040006 1.084125 10.701368 -0.000001 0.000003 0.000001 -0.000002 -0.000000 -0.000001 -0.000002 0.000000 -0.000001 -0.000000 -0.000003 0.000001 -0.000002 0.000000 0.000002 -0.000002 0.000000 0.000002 -0.000002 0.000000 -0.000001 -0.000000 -0.000003 0.000001 -0.000002 0.000000 0.000002 -0.000002 0.000000 0.000002 -0.000002 0.000000 -0.000001 -0.000000 -0.000003 0.000001 0.000000 -0.000001 0.000001 0.000000 -0.000001 0.000001 0.000000 -0.000001 0.000001 
